<svg version="1.1" xmlns="http://www.w3.org/2000/svg" viewBox="0 0 924.4000244140625 411.5999755859375" width="924.4000244140625" height="411.5999755859375">
  <!-- svg-source:excalidraw -->
  
  <defs>
    <style class="style-fonts">
      @font-face {
        font-family: "Virgil";
        src: url("http://127.0.0.1:37840/node_modules/@excalidraw/excalidraw/dist//dist/excalidraw-assets/Virgil.woff2");
      }
      @font-face {
        font-family: "Cascadia";
        src: url("http://127.0.0.1:37840/node_modules/@excalidraw/excalidraw/dist//dist/excalidraw-assets/Cascadia.woff2");
      }
    </style>
    
  </defs>
  <rect x="0" y="0" width="924.4000244140625" height="411.5999755859375" fill="#ffffff"></rect><g stroke-linecap="round" transform="translate(165.79998779296875 121.79998779296875) rotate(0 197.20004272460938 60)"><path d="M30 0 M30 0 C99.58 -1.61, 171.15 -2.06, 364.4 0 M30 0 C147.44 -2.22, 264.81 -1.68, 364.4 0 M364.4 0 C384.4 1.45, 393.85 11.61, 394.4 30 M364.4 0 C385.67 -1.83, 396.17 9.14, 394.4 30 M394.4 30 C394.78 50.14, 394.2 71.27, 394.4 90 M394.4 30 C394.22 42.68, 395.49 55.45, 394.4 90 M394.4 90 C392.76 109.4, 385.08 120.31, 364.4 120 M394.4 90 C396.67 109.88, 385.56 120.91, 364.4 120 M364.4 120 C276.28 117.48, 190.67 118.52, 30 120 M364.4 120 C276.2 118.95, 187.19 118.68, 30 120 M30 120 C8.74 121.65, -0.96 108.96, 0 90 M30 120 C11.73 121.98, -1.41 110.06, 0 90 M0 90 C1.52 69.21, 0.22 46.99, 0 30 M0 90 C-0.53 76.42, 0.86 62.77, 0 30 M0 30 C1.35 8.42, 9.23 1.68, 30 0 M0 30 C-2.22 10.78, 10.21 1.43, 30 0" stroke="#1e1e1e" stroke-width="1" fill="none"></path></g><g stroke-linecap="round" transform="translate(9.800018310546875 5) rotate(0 39.59999084472656 76.39999389648438)"><path d="M19.8 0 M19.8 0 C32.96 0.84, 47.29 1.32, 59.4 0 M19.8 0 C30.63 0.14, 42.39 0.73, 59.4 0 M59.4 0 C71.43 -1.34, 81.01 7.26, 79.2 19.8 M59.4 0 C73.59 -0.76, 80.28 7.03, 79.2 19.8 M79.2 19.8 C78.08 47.3, 78.77 80.4, 79.2 133 M79.2 19.8 C80.5 44.54, 79.82 68.06, 79.2 133 M79.2 133 C80.08 144.81, 71.08 151.87, 59.4 152.8 M79.2 133 C76.98 143.91, 71.43 152.88, 59.4 152.8 M59.4 152.8 C49.34 154.35, 34.84 153.19, 19.8 152.8 M59.4 152.8 C47.32 153.01, 36.98 152.4, 19.8 152.8 M19.8 152.8 C7.61 151.91, -1.6 147.46, 0 133 M19.8 152.8 C7.54 154.73, 2.02 146.48, 0 133 M0 133 C1.7 92.67, -0.49 48.9, 0 19.8 M0 133 C0.48 106.59, 0.14 78.32, 0 19.8 M0 19.8 C1.14 5.16, 4.79 1.3, 19.8 0 M0 19.8 C1.96 5.28, 5.51 -1.67, 19.8 0" stroke="#1e1e1e" stroke-width="1" fill="none"></path></g><g stroke-linecap="round" transform="translate(5 197.79998779296875) rotate(0 41.600006103515625 77.20001220703125)"><path d="M20.8 0 M20.8 0 C34.27 -1.57, 46.06 1.52, 62.4 0 M20.8 0 C33.96 -0.37, 44.8 -0.3, 62.4 0 M62.4 0 C75.62 -1.96, 83.67 5.85, 83.2 20.8 M62.4 0 C76.7 -0.33, 83.48 6.48, 83.2 20.8 M83.2 20.8 C84.76 66.11, 82.66 110.73, 83.2 133.6 M83.2 20.8 C83.22 61.3, 83.03 103.84, 83.2 133.6 M83.2 133.6 C84.93 148.06, 74.95 154.76, 62.4 154.4 M83.2 133.6 C81.38 146.33, 78.56 155.8, 62.4 154.4 M62.4 154.4 C51.22 154.43, 43.85 153.37, 20.8 154.4 M62.4 154.4 C48.32 154.5, 35.36 154.65, 20.8 154.4 M20.8 154.4 C8.3 155.8, 0.69 149.15, 0 133.6 M20.8 154.4 C7.4 155.92, 1.43 145.96, 0 133.6 M0 133.6 C-1.52 104.91, -0.03 74.8, 0 20.8 M0 133.6 C0.06 92.03, -0.95 52.5, 0 20.8 M0 20.8 C-1.38 8.6, 5.98 -1.74, 20.8 0 M0 20.8 C0.42 5.67, 5.45 -0.05, 20.8 0" stroke="#1e1e1e" stroke-width="1" fill="none"></path></g><g stroke-linecap="round" transform="translate(708.2000732421875 10.600006103515625) rotate(0 94.39996337890625 72.79998779296875)"><path d="M32 0 M32 0 C72.08 0.71, 108.91 -1.16, 156.8 0 M32 0 C72.81 -1.54, 114.79 -1.77, 156.8 0 M156.8 0 C176.61 -1.15, 189.97 12.15, 188.8 32 M156.8 0 C180.07 1.29, 186.96 10.52, 188.8 32 M188.8 32 C191.26 57.79, 188.12 83.31, 188.8 113.6 M188.8 32 C189.7 49.88, 189 68.22, 188.8 113.6 M188.8 113.6 C188.9 133.03, 176.7 145.49, 156.8 145.6 M188.8 113.6 C189.08 136.81, 176.6 145.2, 156.8 145.6 M156.8 145.6 C113.23 145.89, 69.83 142.66, 32 145.6 M156.8 145.6 C108.01 143.94, 59.74 144.6, 32 145.6 M32 145.6 C10.16 146.59, -1.6 135.5, 0 113.6 M32 145.6 C9.85 146.48, -1.64 135.41, 0 113.6 M0 113.6 C-1.11 82.22, 0.88 49.34, 0 32 M0 113.6 C0.85 87.45, 0.79 59.52, 0 32 M0 32 C-1.27 12.06, 10.86 -1.73, 32 0 M0 32 C1.19 11.77, 11.06 -1.14, 32 0" stroke="#1e1e1e" stroke-width="1" fill="none"></path></g><g stroke-linecap="round" transform="translate(723.4000244140625 257.79998779296875) rotate(0 98 74.39999389648438)"><path d="M32 0 M32 0 C74.99 -2.51, 116.74 -0.88, 164 0 M32 0 C71.13 1.36, 108.42 0.78, 164 0 M164 0 C184.43 -0.42, 194.6 10.95, 196 32 M164 0 C184.99 -0.85, 196.57 10.36, 196 32 M196 32 C194.58 65.08, 197.19 99.6, 196 116.8 M196 32 C195.73 62.19, 194.95 93.63, 196 116.8 M196 116.8 C195.45 136.6, 186.26 150.37, 164 148.8 M196 116.8 C195.16 139.62, 185.96 150.52, 164 148.8 M164 148.8 C134.03 148.51, 104.1 149.42, 32 148.8 M164 148.8 C134.22 149.66, 104.4 150.32, 32 148.8 M32 148.8 C11.48 148.73, -1.35 137.23, 0 116.8 M32 148.8 C12.53 147.74, 0.01 138.34, 0 116.8 M0 116.8 C-0.23 87.57, 1.1 61.13, 0 32 M0 116.8 C0.13 88.76, 1.03 59.8, 0 32 M0 32 C1.31 11.05, 9.24 0.19, 32 0 M0 32 C1.11 10.88, 9.8 0.92, 32 0" stroke="#1e1e1e" stroke-width="1" fill="none"></path></g><g transform="translate(187.4000244140625 130.60000610351562) rotate(0 29.969970703125 12.5)"><text x="0" y="0" font-family="Virgil, Segoe UI Emoji" font-size="20px" fill="#1e1e1e" text-anchor="start" style="white-space: pre;" direction="ltr" dominant-baseline="text-before-edge">Switch</text></g><g stroke-linecap="round" transform="translate(229 160.20001220703125) rotate(0 59.20001220703125 23.199996948242188)"><path d="M11.6 0 M11.6 0 C42.95 0.1, 71.62 0.71, 106.8 0 M11.6 0 C46.07 0.75, 81.5 0.15, 106.8 0 M106.8 0 C113.63 -1.78, 117.24 5.24, 118.4 11.6 M106.8 0 C116.41 -1.41, 120.16 5.72, 118.4 11.6 M118.4 11.6 C116.97 21.33, 118.36 28.01, 118.4 34.8 M118.4 11.6 C117.77 20.73, 118.22 30.36, 118.4 34.8 M118.4 34.8 C117.11 43.17, 112.73 45.87, 106.8 46.4 M118.4 34.8 C118.42 44.66, 115.53 48.36, 106.8 46.4 M106.8 46.4 C69.87 48.94, 35.88 47.03, 11.6 46.4 M106.8 46.4 C83.39 45.2, 58.36 46.01, 11.6 46.4 M11.6 46.4 C5.14 47.09, -1.53 41.8, 0 34.8 M11.6 46.4 C5.19 48.63, 0.49 44.39, 0 34.8 M0 34.8 C1.21 28.1, -0.68 22.23, 0 11.6 M0 34.8 C0.04 28.71, 0.01 22.77, 0 11.6 M0 11.6 C0.62 2.58, 2.3 -1.47, 11.6 0 M0 11.6 C-2.26 4.99, 4.63 -2.08, 11.6 0" stroke="#1e1e1e" stroke-width="1" fill="none"></path></g><g stroke-linecap="round" transform="translate(392.199951171875 158.5999755859375) rotate(0 61.20001220703125 24)"><path d="M12 0 M12 0 C50.89 -2.47, 89.83 -2.34, 110.4 0 M12 0 C51.31 1.22, 88.74 -0.35, 110.4 0 M110.4 0 C117.24 -0.83, 123.84 5.5, 122.4 12 M110.4 0 C119.09 -0.58, 124.5 3.17, 122.4 12 M122.4 12 C123.01 20.59, 123.34 27.51, 122.4 36 M122.4 12 C121.42 20.72, 122.85 29.82, 122.4 36 M122.4 36 C122.47 43.21, 117.94 46.91, 110.4 48 M122.4 36 C124.31 42.72, 118.79 45.97, 110.4 48 M110.4 48 C85.14 47.01, 62.88 46.17, 12 48 M110.4 48 C81.36 47.09, 50.46 48.07, 12 48 M12 48 C4.39 48.52, 1.95 45.77, 0 36 M12 48 C3.31 47.87, -1.4 43.09, 0 36 M0 36 C-1.85 28.23, 0.49 26.27, 0 12 M0 36 C-0.4 31.92, 0.32 27.14, 0 12 M0 12 C0.38 5.82, 5.98 -1.56, 12 0 M0 12 C1.23 3.18, 3.56 -2.12, 12 0" stroke="#1e1e1e" stroke-width="1" fill="none"></path></g><g transform="translate(257.79998779296875 171.39996337890625) rotate(0 26.909988403320312 12.5)"><text x="0" y="0" font-family="Virgil, Segoe UI Emoji" font-size="20px" fill="#1e1e1e" text-anchor="start" style="white-space: pre;" direction="ltr" dominant-baseline="text-before-edge">vlan 1</text></g><g transform="translate(419.39996337890625 166.5999755859375) rotate(0 31.319984436035156 12.5)"><text x="0" y="0" font-family="Virgil, Segoe UI Emoji" font-size="20px" fill="#1e1e1e" text-anchor="start" style="white-space: pre;" direction="ltr" dominant-baseline="text-before-edge">vlan 2</text></g><g transform="translate(21.675079345703125 68.89997863769531) rotate(0 25.739990234375 12.5)"><text x="0" y="0" font-family="Virgil, Segoe UI Emoji" font-size="20px" fill="#1e1e1e" text-anchor="start" style="white-space: pre;" direction="ltr" dominant-baseline="text-before-edge">SRV 1</text></g><g transform="translate(16.07501220703125 265.6999969482422) rotate(0 30.149986267089844 12.5)"><text x="0" y="0" font-family="Virgil, Segoe UI Emoji" font-size="20px" fill="#1e1e1e" text-anchor="start" style="white-space: pre;" direction="ltr" dominant-baseline="text-before-edge">SRV 2</text></g><g transform="translate(733.6750183105469 43.30000305175781) rotate(0 59.99994659423828 25)"><text x="0" y="0" font-family="Virgil, Segoe UI Emoji" font-size="20px" fill="#1e1e1e" text-anchor="start" style="white-space: pre;" direction="ltr" dominant-baseline="text-before-edge">PC Portable</text><text x="0" y="25" font-family="Virgil, Segoe UI Emoji" font-size="20px" fill="#1e1e1e" text-anchor="start" style="white-space: pre;" direction="ltr" dominant-baseline="text-before-edge">FreeNAS</text></g><g transform="translate(737.6750183105469 305.6999969482422) rotate(0 85.36992645263672 25)"><text x="0" y="0" font-family="Virgil, Segoe UI Emoji" font-size="20px" fill="#1e1e1e" text-anchor="start" style="white-space: pre;" direction="ltr" dominant-baseline="text-before-edge">PC Portable</text><text x="0" y="25" font-family="Virgil, Segoe UI Emoji" font-size="20px" fill="#1e1e1e" text-anchor="start" style="white-space: pre;" direction="ltr" dominant-baseline="text-before-edge">Domain Controller</text></g><g stroke-linecap="round"><g transform="translate(87.27505493164062 25.699996948242188) rotate(0 164.79998779296875 68.80000305175781)"><path d="M0.35 1.19 C34.91 5.13, 153.58 1.75, 208.55 24.4 C263.52 47.04, 310.13 118.27, 330.15 137.08 M-0.93 0.78 C33.35 4.34, 152.37 0.01, 207.47 22.9 C262.57 45.79, 309.51 118.92, 329.67 138.13" stroke="#2f9e44" stroke-width="1" fill="none"></path></g></g><mask></mask><g stroke-linecap="round"><g transform="translate(83.27505493164062 318.49998474121094) rotate(0 167.5999755859375 -58.399993896484375)"><path d="M-0.35 -0.47 C30.86 -3.17, 132.28 3.31, 188.12 -16.22 C243.96 -35.75, 310.2 -101.03, 334.7 -117.67 M1.67 -1.76 C32.65 -4.28, 131.9 4.38, 187.23 -14.8 C242.57 -33.97, 309 -99.57, 333.68 -116.81" stroke="#2f9e44" stroke-width="1" fill="none"></path></g></g><mask></mask><g stroke-linecap="round"><g transform="translate(713.6750183105469 56.89997863769531) rotate(0 -109.60000610351562 55.20001220703125)"><path d="M0.19 -1.01 C-22.99 2.69, -102.17 3.17, -138.84 21.82 C-175.52 40.47, -206.3 95.95, -219.86 110.87 M-1.16 1.07 C-24.56 4.43, -103.39 1.86, -140.02 19.81 C-176.65 37.76, -207.56 93.86, -220.97 108.77" stroke="#2f9e44" stroke-width="1" fill="none"></path></g></g><mask></mask><g stroke-linecap="round"><g transform="translate(87.27505493164062 112.09999084472656) rotate(0 77.19998168945312 26.800003051757812)"><path d="M-1.05 0.89 C24.58 9.79, 127.28 45.82, 153.25 54.41 M0.6 0.32 C26.62 9.4, 129.75 43.92, 155.35 52.72" stroke="#1971c2" stroke-width="1" fill="none"></path></g></g><mask></mask><g stroke-linecap="round"><g transform="translate(82.47500610351562 249.6999969482422) rotate(0 84 -24)"><path d="M-0.06 -0.46 C28.22 -8.57, 141.04 -40.99, 169.12 -48.84 M-1.54 -1.74 C26.72 -9.7, 140.53 -39.76, 168.77 -47.75" stroke="#1971c2" stroke-width="1" fill="none"></path></g></g><mask></mask><g stroke-linecap="round"><g transform="translate(734.4750671386719 321.6999969482422) rotate(0 -204.00003051757812 -62)"><path d="M1.04 0.74 C-35.26 -0.82, -150.44 10.33, -218.58 -10.28 C-286.73 -30.88, -376.1 -103.88, -407.83 -122.9 M0.13 0.08 C-35.74 -1.72, -148.28 8.88, -216.39 -11.92 C-284.49 -32.71, -376.37 -106.06, -408.51 -124.67" stroke="#1971c2" stroke-width="1" fill="none"></path></g></g><mask></mask></svg>